<?xml version="1.0" encoding="utf-8"?>
<!DOCTYPE svg PUBLIC "-//W3C//DTD SVG 1.1//EN" "http://www.w3.org/Graphics/SVG/1.1/DTD/svg11.dtd">
<svg xmlns="http://www.w3.org/2000/svg" xml:space="preserve" width="128" height="128">
  <circle cx="64" cy="64" r="64" fill="#4AB8A1"/>
  <path fill="#43A691" d="M122.596 91.027c-.018.005-.035.008-.053.01-.007-.219-.014-.434-.021-.648-.076.008-.149.026-.228.035-.007-.217-.013-.432-.021-.648-.078.008-.151.025-.229.035-.007-.218-.013-.434-.021-.648-.076.007-.151.025-.229.035-.007-.219-.013-.434-.021-.649-.075.007-.15.026-.229.035-.007-.217-.013-.433-.021-.647-.075.006-.15.025-.229.035-.007-.218-.013-.434-.021-.648-.074.007-.149.025-.228.033-.007-.217-.013-.432-.021-.647-.076.007-.151.024-.229.035-.007-.218-.013-.435-.021-.649-.075.008-.15.026-.229.035-.007-.217-.013-.432-.021-.646-.075.007-.15.024-.229.033-.007-.217-.013-.432-.021-.647-.075.007-.15.024-.228.034-.008-.217-.014-.434-.021-.648-.076.007-.151.026-.229.035-.007-.217-.013-.432-.021-.648-.076.006-.151.025-.229.034-.008-.217-.014-.433-.021-.649-.075.009-.15.026-.229.035-.007-.217-.013-.432-.021-.646-.075.007-.15.025-.228.035-.008-.219-.014-.434-.021-.649-.076.007-.15.026-.229.035-.006-.217-.013-.433-.021-.649-.076.008-.151.026-.229.035-.008-.217-.014-.432-.021-.647-.075.007-.149.024-.229.034-.006-.217-.013-.433-.021-.647-.075.007-.15.026-.228.035-.008-.218-.014-.433-.021-.649-.076.008-.15.026-.229.035-.006-.217-.012-.432-.021-.648-.075.008-.151.025-.229.035-.008-.218-.014-.434-.021-.648-.076.007-.15.025-.229.035-.006-.219-.012-.434-.021-.648-.075.008-.151.026-.228.035-.009-.217-.015-.432-.021-.648-.076.008-.15.025-.229.034-.007-.217-.013-.433-.021-.647-.075.007-.151.025-.229.035-.008-.219-.014-.434-.021-.649-.076.007-.15.026-.228.035-.008-.218-.014-.433-.021-.648-.076.007-.152.026-.229.035-.009-.217-.015-.433-.021-.649-.076.008-.15.026-.229.035-.007-.217-.013-.432-.021-.647-.076.007-.152.024-.229.034-.007-.217-.013-.434-.021-.648-.076.007-.152.025-.229.035-.008-.217-.014-.434-.021-.648-.076.006-.15.025-.228.034-.008-.217-.014-.432-.021-.647-.076.008-.151.025-.229.035-.008-.218-.015-.434-.021-.648-.076.007-.15.025-.229.035-.007-.217-.013-.434-.021-.649-.076.007-.151.026-.229.035-.007-.217-.014-.433-.021-.649-.076.008-.149.026-.228.035-.008-.217-.014-.432-.021-.646-.076.007-.15.025-.229.035-.008-.219-.014-.434-.021-.649-.076.007-.15.026-.229.035-.006-.218-.013-.435-.021-.649-.076.008-.151.026-.229.035-.006-.217-.013-.432-.021-.648-.075.008-.149.025-.228.035-.008-.218-.014-.433-.021-.647-.076.007-.15.026-.229.034-.008-.217-.014-.434-.021-.648-.075.008-.15.026-.229.035-.006-.217-.013-.432-.021-.648-.076.006-.151.025-.229.034-.006-.217-.013-.433-.021-.647-.076.007-.151.024-.228.033-.008-.217-.015-.432-.021-.647-.076.007-.15.024-.229.035-.008-.217-.014-.433-.021-.648-.076.007-.15.026-.229.035-.008-.217-.014-.433-.021-.648-.076.007-.151.025-.229.034-.006-.217-.013-.432-.021-.648-.076.007-.151.025-.228.035-.008-.218-.015-.434-.021-.649-.076.007-.15.026-.229.035-.008-.217-.014-.432-.021-.648-.076.008-.15.026-.229.035-.008-.217-.014-.432-.021-.648-.075.007-.149.025-.229.035-.006-.218-.012-.434-.021-.649-.075.007-.151.026-.228.035-.008-.218-.014-.433-.021-.649-.076.007-.15.026-.229.035-.006-.217-.014-.432-.021-.648-.076.008-.15.026-.229.035-.008-.217-.014-.433-.021-.648-.077.007-.149.025-.229.035-.008-.218-.014-.433-.021-.649-.075.007-.149.026-.229.035-.006-.217-.012-.433-.021-.649-.075.007-.151.026-.228.035-.008-.217-.014-.432-.021-.648-.076.007-.15.025-.229.034-.006-.217-.012-.432-.021-.647-.074.007-.15.025-.229.035-.008-.217-.014-.434-.021-.649-.075.007-.149.026-.229.035-.006-.217-.012-.432-.021-.649-.075.008-.151.026-.228.035-.008-.217-.014-.433-.021-.648-.076.007-.15.025-.229.035-.006-.218-.012-.433-.021-.648-.074.007-.15.026-.229.035-.008-.217-.014-.432-.021-.649-.075.007-.149.026-.229.035-.006-.217-.012-.433-.021-.649-.075.008-.151.026-.228.035-.008-.217-.014-.432-.021-.648-.076.007-.15.025-.228.035-.007-.218-.013-.433-.021-.648-.076.007-.152.026-.229.035-.009-.217-.015-.433-.021-.649-.076.007-.15.026-.229.035-.008-.217-.014-.432-.021-.648-.076.007-.152.025-.229.034-.008-.217-.014-.433-.021-.648-.076.007-.15.025-.228.035-.007-.217-.013-.433-.021-.649-.076.007-.152.026-.229.035-.009-.217-.015-.432-.021-.647-.076.007-.15.025-.229.034-.008-.217-.014-.433-.021-.647-.076.007-.15.025-.229.035-.008-.218-.014-.433-.021-.649-.076.007-.15.026-.228.035-.007-.217-.013-.434-.021-.649-.076.007-.152.026-.229.035-.007-.217-.015-.432-.021-.647-.076.007-.15.025-.229.035-.008-.218-.014-.433-.021-.649-.076.007-.15.026-.229.035-.008-.218-.014-.434-.021-.649-.076.007-.149.026-.228.035-.007-.217-.013-.432-.021-.649-.076.007-.151.026-.229.035-.007-.217-.013-.432-.021-.647-.076.007-.151.025-.229.035-.007-.218-.013-.434-.021-.649-.076.007-.15.026-.229.035-.007-.217-.014-.433-.021-.649-.076.007-.15.026-.229.035-.007-.217-.014-.433-.021-.648-.074.007-.149.025-.228.034-.007-.217-.013-.432-.021-.648-.076.007-.151.025-.229.035-.007-.218-.013-.433-.021-.648-.076.007-.15.026-.229.035-.007-.217-.014-.433-.021-.649-.076.008-.15.026-.229.035-.007-.217-.014-.432-.021-.648-.074.007-.149.025-.228.035-.007-.218-.013-.434-.021-.649-.076.007-.151.026-.229.035-.007-.218-.013-.433-.021-.648-.076.007-.151.026-.229.035-.008-.217-.014-.432-.021-.649-.076.008-.15.026-.229.035-.007-.217-.014-.433-.021-.647-.076.007-.15.025-.228.035-.008-.218-.015-.433-.021-.649-.076.007-.151.026-.229.035-.007-.217-.013-.433-.021-.648-.076.007-.151.026-.229.035-.008-.217-.014-.433-.021-.648-.075.007-.149.025-.229.034-.007-.217-.013-.432-.021-.648-.075.007-.15.025-.228.035-.008-.217-.014-.434-.021-.649-.076.007-.15.026-.229.035-.006-.217-.013-.432-.021-.649-.076.008-.151.026-.229.035-.008-.217-.014-.432-.021-.647-.075.007-.149.025-.229.035-.006-.218-.013-.434-.021-.649-.075.007-.15.026-.228.035-.008-.217-.014-.432-.021-.649-.076.007-.15.026-.229.035-.006-.217-.013-.433-.021-.649-.076.008-.151.026-.229.035-.008-.217-.014-.432-.021-.647-.075.007-.149.026-.229.035-.006-.218-.012-.433-.021-.649-.074.007-.15.026-.228.035-.008-.217-.014-.433-.021-.649-.076.007-.15.026-.229.035-.006-.217-.012-.432-.021-.648-.077.007-.151.025-.229.034-.006-.216-.012-.432-.021-.647-.075.007-.151.026-.229.035-.008-.217-.014-.433-.021-.649-.075.007-.149.026-.229.035-.006-.217-.012-.432-.021-.648-.074.007-.15.025-.228.034-.008-.217-.014-.433-.021-.648-.076.007-.15.025-.229.035-.006-.218-.012-.433-.021-.648-.075.007-.151.026-.229.035-.008-.217-.014-.432-.021-.649-.076.008-.15.026-.228.035-.008-.217-.014-.433-.021-.648-.076.007-.152.025-.229.035-.009-.218-.015-.433-.021-.649-.076.007-.15.026-.229.035-.007-.218-.013-.434-.021-.649-.076.007-.152.026-.229.035-.008-.217-.014-.432-.021-.648-.076.008-.15.026-.228.035-.008-.217-.014-.432-.021-.648-.076.007-.151.025-.229.035-.009-.218-.015-.434-.021-.649-.453.039-.901.115-1.35.208-.101.021-.199.042-.299.064-.447.104-.892.226-1.328.377h-.004c-6.945 2.392-12.964 10.38-15.563 14.269-3.271-2.687-6.896-4.343-10.873-4.343-3.977 0-7.604 1.656-10.871 4.343-2.967-4.437-10.381-14.211-18.544-14.918-.667 17.661 2.129 33.073 3.277 38.541-3.965 9.582-6.093 18.131-6.291 18.941-1.329 5.455-1.008 10.592.871 14.883.081.205.16.412.248.613.082.207.161.416.25.619.081.203.158.408.246.607.082.208.162.417.251.621.081.203.158.408.246.605.081.206.16.413.248.615.082.207.161.416.25.619.081.203.158.408.246.607.081.205.16.412.248.613.081.205.16.412.248.613.082.208.161.416.25.62.081.202.158.407.246.608.081.205.16.412.248.611.081.206.16.413.248.615.082.207.161.416.25.619.081.203.158.408.246.606.082.208.162.417.251.62.081.203.158.408.246.607.082.207.161.416.25.619.081.203.158.408.246.608.081.205.16.412.248.612.081.206.16.413.248.615.081.205.16.412.248.613.082.207.161.416.25.619.081.203.158.408.246.607.081.205.16.412.248.613.081.205.16.412.248.614.082.207.161.416.25.619.081.203.158.408.246.606.082.207.162.416.251.621.081.203.158.408.246.606.082.208.161.416.25.62.081.203.158.408.246.607.081.205.16.412.248.613.081.205.16.412.248.614.081.205.16.412.248.613.082.208.161.416.25.618.081.203.158.408.246.608.081.205.16.412.248.613.081.206.16.413.248.614.082.207.161.416.25.619.082.205.16.412.249.613.081.203.158.408.246.608.081.205.16.412.248.612.082.209.161.416.25.619.081.203.158.408.246.608.081.205.16.412.248.613.081.206.16.413.248.614.081.205.16.412.248.612.082.208.161.416.25.62.081.203.158.408.246.607.081.205.16.412.248.613.001.004.003.008.004.01 5.903 1.798 12.165 2.771 18.655 2.771 25.665-.036 47.66-14.924 57.961-36.472z"/>
  <path fill="#CC803D" d="M54.5 38.008s-9.333-16.166-19.916-17.083c-.834 22.083 3.75 40.667 3.75 40.667L54.5 38.008z"/>
  <path fill="#BF7839" d="M34.584 20.925c-.008.218-.013.434-.02.65C43.858 24.772 51.5 38.008 51.5 38.008L37.615 58.264c.425 2.135.719 3.328.719 3.328L54.5 38.008s-9.333-16.166-19.916-17.083z"/>
  <path fill="#B37035" d="M41.473 53.396c-.971-6.245-1.986-15.133-1.99-25.015 4.521 2.6 8.841 8.004 11.229 11.536l-9.239 13.479z"/>
  <path fill="#CC803D" d="M73.5 38.008s9.334-16.166 19.916-17.083c.836 22.083-3.75 40.667-3.75 40.667L73.5 38.008z"/>
  <path fill="#BF7839" d="M93.416 20.925c-1.007.087-2.003.314-2.98.65.539 16.227-1.813 30.469-3.051 36.688l2.281 3.327c0 .002 4.586-18.582 3.75-40.665z"/>
  <path fill="#B37035" d="M86.527 53.396c.971-6.245 1.986-15.133 1.99-25.015-4.521 2.6-8.844 8.004-11.229 11.536l9.239 13.479z"/>
  <path fill="#CC803D" d="M79 104c-5.866 0-11.771-.753-15-4.537-3.229 3.784-9.134 4.537-15 4.537-5.647 0-10.828-2.473-14.212-6.777-3.84-4.888-4.982-11.568-3.218-18.813.467-1.916 11.675-46.909 32.43-46.909S95.963 76.494 96.43 78.41c1.766 7.242.622 13.926-3.218 18.813C89.828 101.527 84.646 104 79 104z"/>
  <path fill="#BF7839" d="M64 78.704h6.773c0-5.529-4.527-30.32 4.099-42.861C71.604 33.157 67.977 31.5 64 31.5c-3.977 0-7.604 1.657-10.872 4.343 8.626 12.541 4.099 37.332 4.099 42.861H64z"/>
  <path fill="#BF7839" d="M96.43 78.409C95.963 76.493 84.755 31.5 64 31.5c-.506 0-1.005.034-1.5.087 19.794 2.09 30.475 44.953 30.93 46.822 1.766 7.243.622 13.926-3.218 18.813-3.165 4.027-7.901 6.448-13.122 6.744.635.021 1.271.032 1.91.032 5.646 0 10.828-2.472 14.212-6.776 3.84-4.887 4.981-11.57 3.218-18.813z"/>
  <path fill="#F5F5F5" d="M64 77.55c-12.564 0-22.75 11.625-22.75 23.5 0 .438.039.865.066 1.298C43.671 103.422 46.28 104 49 104c5.866 0 11.771-.753 15-4.537 3.229 3.784 9.134 4.537 15 4.537 2.721 0 5.329-.578 7.684-1.652.028-.433.066-.859.066-1.298 0-11.875-10.186-23.5-22.75-23.5z"/>
  <path fill="#CCC" d="M81.031 103.891c.65-.068 1.291-.174 1.921-.31.013-.004.024-.006.038-.009.638-.139 1.264-.311 1.877-.514.003 0 .005-.002.008-.002.615-.205 1.217-.441 1.803-.709.002 0 .004-.002.006-.002.028-.433.066-.859.066-1.298 0-.17-.01-.34-.014-.509-2.766 2.016-6.086 3.225-9.646 3.427.635.021 1.271.032 1.91.032.667 0 1.326-.037 1.979-.104.017.002.035 0 .052-.002z"/>
  <path fill="#242424" d="M65.421 83.996c1.979-2.01 2.979-2.971 4.922-4.528.769-.614.509-1.319-.581-1.557-4.555-.986-6.969-.986-11.523 0-1.088.235-1.348.938-.58 1.555 1.943 1.562 2.943 2.521 4.922 4.528.126.128.271.229.419.314 0 1.199-.002 1.797-.002 2.998-2.563.534-4.498 2.983-4.495 5.726.001.563.445 1.018.999 1.018s1.001-.465 1-1.039c-.002-2.006 1.567-3.704 3.502-3.704 1.936 0 3.501 1.698 3.498 3.704-.001.574.446 1.039 1 1.039.555 0 .999-.455 1-1.018.003-2.74-1.936-5.188-4.497-5.726.001-1.201.001-1.799.002-2.998.145-.085.288-.184.414-.312z"/>
  <circle cx="74" cy="61.925" r="5" fill="#EDEDED"/>
  <circle cx="74" cy="61.925" r="2" fill="#242424"/>
  <circle cx="54" cy="61.925" r="5" fill="#EDEDED"/>
  <circle cx="54" cy="61.925" r="2" fill="#242424"/>
</svg>