<?xml version="1.0" encoding="utf-8"?>
<!DOCTYPE svg PUBLIC "-//W3C//DTD SVG 1.1//EN" "http://www.w3.org/Graphics/SVG/1.1/DTD/svg11.dtd">
<svg xmlns="http://www.w3.org/2000/svg" xml:space="preserve" width="128" height="128">
  <circle cx="64" cy="64" r="64" fill="#2D4452"/>
  <path fill="#233540" d="M124.846 83.854c-.044-.104-.074-.217-.128-.314-.054-.221-.143-.423-.249-.616-.053-.218-.142-.42-.246-.61-.054-.219-.144-.422-.248-.613-.054-.221-.144-.422-.248-.614-.055-.22-.144-.423-.25-.614-.053-.22-.142-.422-.246-.611-.054-.221-.144-.422-.248-.614-.055-.222-.145-.425-.252-.618-.053-.218-.141-.419-.244-.609-.055-.221-.145-.422-.25-.615-.053-.219-.143-.42-.246-.611-.055-.221-.143-.422-.248-.614-.055-.219-.143-.422-.248-.612-.055-.222-.145-.424-.249-.616-.054-.218-.144-.421-.247-.611-.055-.219-.143-.422-.248-.612-.055-.222-.143-.424-.248-.615-.055-.219-.143-.422-.249-.614-.053-.22-.142-.421-.247-.612-.054-.22-.143-.422-.248-.613-.054-.22-.142-.422-.248-.613-.054-.221-.142-.422-.248-.614-.054-.22-.143-.423-.248-.615-.054-.219-.143-.421-.248-.61-.054-.221-.142-.424-.248-.614-.054-.22-.142-.422-.248-.614-.054-.22-.143-.423-.248-.615-.054-.219-.143-.421-.248-.61-.054-.22-.142-.423-.248-.614-.053-.221-.142-.422-.246-.614-.055-.22-.145-.423-.25-.614-.053-.22-.143-.421-.246-.611-.055-.222-.145-.426-.252-.618-.053-.218-.141-.42-.245-.61-.054-.22-.144-.422-.248-.614-.056-.22-.144-.423-.249-.614-.053-.22-.143-.422-.247-.612-.054-.22-.144-.422-.248-.614-.054-.219-.144-.422-.248-.614-.054-.22-.144-.423-.249-.615-.053-.219-.143-.421-.247-.611-.053-.219-.144-.422-.248-.614-.053-.22-.143-.422-.248-.613-.054-.221-.143-.424-.249-.615-.053-.219-.142-.421-.246-.612-.054-.22-.144-.422-.248-.614-.054-.219-.144-.422-.248-.613-.054-.221-.144-.423-.248-.614-.055-.22-.144-.423-.25-.615-.053-.219-.142-.421-.246-.612-.053-.22-.144-.422-.248-.613-.053-.22-.144-.423-.248-.614-.055-.22-.144-.423-.248-.616-.055-.218-.143-.42-.247-.611-.054-.219-.144-.422-.248-.613-.054-.221-.144-.422-.248-.614-.054-.22-.144-.423-.249-.615-.055-.221-.145-.424-.25-.616-.053-.218-.143-.419-.246-.609-.055-.219-.143-.422-.248-.614-.054-.22-.143-.422-.248-.614-.054-.22-.143-.423-.249-.615-.053-.219-.142-.421-.247-.611-.054-.221-.142-.422-.248-.614-.054-.219-.142-.422-.248-.614-.054-.22-.143-.423-.248-.615-.054-.219-.143-.421-.248-.611-.054-.219-.142-.422-.248-.614-.054-.22-.142-.422-.248-.614-.054-.22-.143-.423-.248-.614-.054-.22-.143-.421-.248-.612-.053-.22-.142-.422-.246-.614-.055-.219-.144-.422-.248-.614-.055-.22-.144-.422-.248-.613-.055-.221-.145-.424-.249-.615-.054-.219-.144-.421-.247-.612-.055-.22-.143-.422-.248-.614-.055-.219-.143-.422-.248-.613-.055-.221-.145-.424-.249-.616-.054-.218-.144-.42-.247-.611-.055-.219-.143-.422-.248-.614-.054-.22-.143-.422-.248-.613-.054-.223-.145-.426-.251-.62-.054-.217-.142-.417-.246-.607-.053-.22-.144-.422-.248-.614-.053-.219-.143-.422-.247-.613-.055-.221-.144-.423-.25-.616-.053-.218-.142-.42-.246-.611-.054-.219-.144-.422-.248-.613-.054-.221-.144-.423-.248-.614-.054-.219-.144-.422-.248-.614-.055-.22-.144-.423-.248-.616-.055-.218-.144-.42-.248-.61-.053-.22-.144-.422-.248-.614-.266-1.1-1.254-1.913-2.43-1.913-.035 0-1.004.002-2.49.053h.002c-4.377.149-13.284.72-16.433 2.89-.458.315-.788.776-.954 1.301-.025-.057-.045-.116-.072-.172-.067-.211-.146-.42-.252-.62-.065-.207-.145-.411-.246-.607-.065-.209-.146-.416-.248-.613-.065-.209-.146-.416-.247-.614-.066-.21-.146-.417-.249-.616-.066-.208-.145-.414-.247-.61-.065-.209-.146-.416-.248-.614-.065-.209-.146-.416-.248-.614-.065-.209-.146-.416-.248-.614-.065-.21-.146-.417-.249-.616-.066-.207-.145-.413-.247-.61-.065-.209-.146-.416-.248-.614-.14-.439-.353-.864-.657-1.245-1.33-1.653-3.748-1.917-5.4-.588-1.305 1.048-1.74 2.779-1.217 4.273.258.726.244 1.375.164 2.006-.092.627-.174 1.257-.285 1.878-.137.804-.313 1.598-.508 2.385-1.354-.266-2.748-.411-4.169-.411-.464 0-.92.039-1.378.069-.044-.114-.093-.227-.146-.335-.063-.211-.148-.415-.248-.614-.064-.214-.151-.42-.252-.621-.063-.208-.147-.41-.245-.605-.064-.211-.148-.415-.248-.614-.064-.211-.148-.415-.248-.614-.064-.212-.149-.417-.25-.615-.063-.211-.146-.413-.246-.611-.063-.211-.147-.415-.248-.614-.063-.211-.147-.415-.248-.614-.063-.211-.147-.415-.248-.613-.063-.213-.148-.417-.25-.616-.063-.21-.146-.413-.246-.611-.063-.211-.147-.415-.248-.614-.216-.717-.637-1.379-1.263-1.883-1.653-1.329-4.072-1.065-5.4.588-.97 1.205-1.082 2.813-.437 4.113.063.212.148.416.248.615.063.211.148.415.248.615.063.21.148.412.248.61.063.212.148.416.248.615.063.211.147.415.248.613.063.212.147.416.248.614.063.212.147.416.248.615.063.21.147.413.248.611.063.212.147.416.248.615.063.211.147.415.248.612.063.214.149.421.25.62.061.203.146.398.238.591-1.483.659-2.89 1.473-4.193 2.425-.016-.026-.023-.056-.039-.082-.06-.216-.138-.424-.248-.614-.06-.215-.138-.422-.248-.612-.06-.216-.137-.424-.248-.614-.06-.216-.137-.423-.248-.614-.059-.216-.137-.424-.248-.613-.059-.216-.137-.424-.248-.615-.059-.215-.137-.422-.248-.612-.059-.216-.137-.424-.248-.614-.154-.567-.492-1.072-.979-1.41-4.218-2.907-18.774-2.941-18.921-2.941-.175 0-.344.02-.508.053h-.001c-1.113.23-1.961 1.2-1.991 2.381l-.019.623c-.074 2.366-.192 6.183 1.392 9.831.077.205.158.41.247.614.079.207.161.414.251.62.077.203.157.405.245.607.078.204.159.409.248.613.078.205.159.41.248.614.078.205.159.41.248.614.079.207.161.414.251.62.077.203.157.404.245.606.078.205.159.41.248.614.078.205.159.41.248.614.081.212.165.424.258.636.075.197.153.396.239.592.078.205.159.41.248.614.078.205.159.41.248.614.079.207.161.414.25.62.078.203.158.405.246.606.077.205.158.41.248.614.077.205.158.41.247.614.079.207.161.414.25.62.078.203.158.405.246.606.078.205.159.41.248.614.078.205.159.41.248.614.078.205.159.41.248.614.079.207.161.413.25.62.078.202.158.404.246.606.078.205.159.41.248.614.078.205.159.41.248.614.079.207.161.413.25.62.078.202.158.404.246.606.078.205.159.41.248.614.078.205.159.41.248.614.079.207.161.413.25.62.077.202.157.404.245.606.078.205.159.41.248.614.078.205.159.41.248.614.08.21.164.42.256.629.076.202.156.403.244.604.077.203.157.405.245.607.078.205.159.41.248.614.078.204.159.409.248.613.079.207.161.414.251.62.077.203.157.405.245.607.078.205.159.41.248.614.078.204.159.409.248.613.079.207.161.414.251.62.077.204.157.405.245.607.078.205.159.41.248.614.078.203.159.408.248.613.077.205.158.41.248.613.078.207.16.414.251.62.076.203.156.405.244.606.078.205.159.41.248.613.078.205.159.41.248.614.079.207.161.414.251.62.077.203.157.404.245.607.078.203.159.408.248.612.078.205.159.41.248.614.079.207.161.414.251.62.077.203.157.405.245.606.078.205.159.409.248.613.08.21.164.421.255.63.076.199.155.399.242.601.079.207.161.414.25.619.078.203.158.405.246.606.078.205.159.41.248.614.077.205.158.41.248.613.078.207.16.414.25.621.077.203.157.404.245.605.078.205.159.41.248.614.078.204.159.409.248.614.079.207.161.414.25.619.078.203.158.405.246.606.078.205.159.41.248.614.078.205.159.41.248.613.078.205.159.41.248.614.079.207.161.413.25.62.078.202.158.404.246.605.078.205.159.41.248.614.078.205.159.41.248.614.079.207.161.413.25.62.078.202.158.403.246.606.078.205.158.409.248.613.077.205.158.41.248.614.078.207.16.413.25.62.077.201.157.404.245.605.08.211.164.42.255.629.004.01.007.018.01.023.204 1.29.551 2.499 1.025 3.618.077.209.162.411.248.612.077.211.163.414.249.617.077.207.161.409.247.61.077.209.162.412.248.614.077.209.162.41.248.613.077.209.162.412.248.613.077.21.163.414.249.617.077.207.161.409.247.609.077.209.162.412.248.613.077.209.162.412.248.614.079.213.165.42.253.626.076.204.159.402.244.602.077.209.162.412.248.614.077.209.162.412.248.614.077.21.161.414.249.617.076.207.16.408.247.609.076.209.161.412.247.613.077.209.162.412.248.614.078.21.162.414.249.616.077.207.161.408.247.609.077.209.162.412.248.614.077.209.162.412.248.614.077.209.162.412.248.613.078.209.162.414.249.616.077.207.161.409.247.61.077.209.162.412.248.613.077.209.162.412.248.613.078.211.162.414.249.617.077.207.161.409.247.61.077.209.162.411.248.612.077.209.162.412.248.614.078.21.162.414.249.617.077.207.161.409.247.608.077.209.162.412.248.615.077.209.162.412.248.613.078.212.164.418.252.623.077.207.161.408.246.607.076.207.16.41.246.609.077.209.162.412.248.614.077.209.162.412.248.614.077.21.163.414.249.615.077.207.161.41.247.61.077.209.162.412.248.614.077.209.162.412.248.613.077.211.163.414.249.617.077.207.161.408.247.609.077.209.162.412.248.614.077.209.162.411.248.612.077.209.162.412.248.614.077.21.163.414.249.617.077.207.161.409.247.61.077.209.162.412.248.613.077.209.162.412.248.613.077.21.163.414.249.617.077.207.161.409.247.609.077.209.162.412.248.613.044.119.094.234.142.354 28.299-.093 52.256-18.578 60.588-44.124z"/>
  <path fill="#B37035" d="M43.971 46.406c-.098 0-.194-.005-.295-.018-17.769-2.104-17.388-14.242-17.225-19.427l.018-.623c.036-1.354 1.146-2.434 2.5-2.434.146 0 14.704.034 18.921 2.941.583.402.97 1.038 1.061 1.743.059.457.095.979.132 1.533.106 1.594.239 3.576 1.174 4.139 1.186.713 1.567 2.245.857 3.433-.711 1.182-4.5 5.135-4.661 6.504-.153 1.274-1.232 2.209-2.482 2.209z"/>
  <path fill="#A66831" d="M50.255 34.262c-.935-.562-1.066-2.543-1.174-4.138-.037-.555-.073-1.077-.132-1.532-.091-.707-.478-1.342-1.061-1.744-4.217-2.907-18.773-2.941-18.921-2.941-.175 0-.345.02-.509.053 4.377.149 13.282.719 16.43 2.89.583.402.97 1.038 1.061 1.743.059.457.095.979.132 1.533.106 1.594.239 3.576 1.174 4.139 1.186.713 1.567 2.245.857 3.433-.711 1.182-4.5 5.135-4.661 6.504-.105.887-.667 1.603-1.418 1.958.529.087 1.075.164 1.643.23.101.014.197.019.295.019 1.25 0 2.329-.937 2.48-2.207.161-1.369 3.95-5.322 4.661-6.504.71-1.188.328-2.722-.857-3.436z"/>
  <path fill="#99602D" d="M43.882 43.243c-11.337-1.764-12.556-7.937-12.453-14.319 5.682.115 12.192.849 14.623 1.912.014.181.025.365.038.557.124 1.839.299 4.43 1.821 6.214-.147.18-.298.36-.435.524-1.737 2.097-2.979 3.642-3.594 5.112z"/>
  <path fill="#B37035" d="M83.966 46.406c-1.25 0-2.329-.937-2.479-2.207-.16-1.369-3.954-5.332-4.659-6.504-.711-1.188-.327-2.72.854-3.434.938-.562 1.067-2.543 1.176-4.138.035-.555.072-1.077.133-1.532.09-.707.476-1.342 1.06-1.744 4.216-2.907 18.774-2.941 18.921-2.941 1.354 0 2.463 1.079 2.5 2.434l.018.623c.164 5.185.546 17.322-17.225 19.427-.101.011-.202.016-.299.016z"/>
  <path fill="#A66831" d="m101.484 26.963-.018-.623c-.037-1.354-1.146-2.434-2.5-2.434-.037 0-1.004.002-2.49.053 1.112.23 1.959 1.201 1.99 2.381l.018.623c.158 5.02.521 16.557-15.582 19.194.326.155.686.249 1.063.249.099 0 .198-.005.296-.018 17.768-2.103 17.387-14.242 17.223-19.425z"/>
  <path fill="#99602D" d="M84.057 43.244c-.615-1.471-1.859-3.021-3.604-5.125-.132-.16-.279-.337-.425-.514 1.521-1.782 1.695-4.372 1.818-6.202.014-.197.025-.387.039-.567 2.426-1.063 8.938-1.797 14.622-1.913.1 6.4-1.123 12.569-12.45 14.321z"/>
  <path fill="#E6A973" d="M52.874 95.089c0 7.581 4.77 12.636 11.095 12.636 6.325 0 11.095-5.055 11.095-12.636h-22.19z"/>
  <path fill="#D99F6C" d="M72.063 95.089c0 6.968-4.031 11.788-9.595 12.524.49.063.987.109 1.5.109 6.325 0 11.095-5.055 11.095-12.636l-3 .003z"/>
  <path fill="#D99F6C" d="M53.687 100.156c2.646 2.385 6.222 3.75 10.282 3.75 4.062 0 7.636-1.365 10.282-3.75.522-1.516.813-3.215.813-5.067H52.875c-.001 1.852.288 3.554.812 5.067z"/>
  <path fill="#665744" d="M59.17 23.049c-.256.727-.243 1.375-.163 2.006.091.627.173 1.258.286 1.879.211 1.246.481 2.476.85 3.677.324 1.056-.27 2.175-1.325 2.499-1.058.323-2.176-.271-2.5-1.326-.007-.023-.016-.055-.021-.079-.319-1.215-.736-2.401-1.213-3.573-.23-.587-.492-1.166-.745-1.746-.264-.578-.595-1.138-1.194-1.619-1.653-1.329-1.918-3.747-.589-5.4 1.329-1.654 3.747-1.917 5.401-.588 1.302 1.044 1.738 2.776 1.213 4.27zm9.598 0c.258.727.244 1.375.164 2.006-.092.627-.174 1.258-.287 1.879-.211 1.246-.479 2.476-.85 3.677-.324 1.056.271 2.175 1.326 2.499 1.057.323 2.175-.271 2.499-1.326.007-.023.017-.055.021-.079.319-1.215.736-2.401 1.213-3.573.23-.587.492-1.166.746-1.746.264-.578.596-1.138 1.193-1.619 1.654-1.329 1.918-3.747.589-5.4-1.329-1.654-3.747-1.917-5.401-.588-1.301 1.044-1.739 2.776-1.213 4.27z"/>
  <path fill="#E6A973" d="M63.969 28.906c-12.197 0-22.5 10.303-22.5 22.5v10c0 .835.417 1.616 1.113 2.08 0 0 5.643 2.489 6.387 4.258 3.75 8.912 0 13.871 0 19.162 0 9 6.447 15 15 15 8.552 0 15-6 15-15 0-5.291-3.75-10.25 0-19.162.744-1.77 6.389-4.258 6.389-4.258.694-.464 1.111-1.245 1.111-2.08v-10c0-12.197-10.303-22.5-22.5-22.5z"/>
  <path fill="#D99F6C" d="M63.969 28.906c-.504 0-1.003.023-1.5.059 11.529.804 21 10.748 21 22.441v10c0 .835-.417 1.616-1.111 2.08 0 0-5.645 2.489-6.389 4.258-3.75 8.912 0 13.871 0 19.162 0 8.465-5.705 14.273-13.5 14.934.492.042.992.066 1.5.066 8.552 0 15-6 15-15 0-5.291-3.75-10.25 0-19.162.744-1.77 6.389-4.258 6.389-4.258.694-.464 1.111-1.245 1.111-2.08v-10c0-12.197-10.303-22.5-22.5-22.5z"/>
  <path fill="#805D35" d="M58.969 92.461c-1.382 0-2.5-1.117-2.5-2.5v-5c0-1.379 1.118-2.5 2.5-2.5s2.5 1.121 2.5 2.5v5c0 1.383-1.118 2.5-2.5 2.5zm10 0c-1.382 0-2.5-1.117-2.5-2.5v-5c0-1.379 1.118-2.5 2.5-2.5 1.383 0 2.5 1.121 2.5 2.5v5c0 1.383-1.117 2.5-2.5 2.5z"/>
  <path fill="#946C3D" d="M56.688 55.469c-.824 0-1.633-.404-2.108-1.153-1.543-2.415-5.124-3.255-7.834-1.819-1.211.646-2.732.184-3.379-1.038-.647-1.218-.182-2.73 1.04-3.381 5-2.642 11.451-1.055 14.387 3.55.742 1.165.4 2.71-.762 3.452-.418.262-.885.389-1.344.389z"/>
  <path fill="#805D35" d="M71.249 55.469c-.459 0-.925-.127-1.343-.391-1.162-.742-1.506-2.287-.764-3.452 2.937-4.608 9.396-6.193 14.39-3.55 1.221.649 1.687 2.163 1.04 3.381-.647 1.221-2.166 1.684-3.381 1.038-2.709-1.437-6.291-.599-7.834 1.819-.474.749-1.283 1.155-2.108 1.155z"/>
  <circle cx="49.969" cy="57.656" r="3" fill="#F5F5F5"/>
  <circle cx="49.969" cy="57.656" r="1" fill="#242424"/>
  <circle cx="77.969" cy="57.656" r="3" fill="#F5F5F5"/>
  <circle cx="77.969" cy="57.656" r="1" fill="#242424"/>
</svg>